<svg width="124" height="88" viewBox="0 0 124 88" fill="none" xmlns="http://www.w3.org/2000/svg">
<rect width="124" height="88" fill="#244974"/>
<path d="M19.0002 72.0109L86.9381 71.6399M103.314 71.5505L109.154 64.3154L92.9836 64.4884L86.9381 71.6399M103.314 71.5505L86.9381 71.6399M103.314 71.5505L109.154 78.7424L92.9836 78.7424L86.9381 71.6399M55.85 67.4322L55.85 75.6993" stroke="#CDAB5E" stroke-width="2"/>
<path d="M55.5075 15.6408L81.1587 59.189L32.7616 60.7745L55.5075 15.6408Z" stroke="#CDAB5E" stroke-width="2"/>
<path d="M42.6034 39.3937L32.8483 32.9387L46.0994 32.5827L42.6034 39.3937Z" stroke="#CDAB5E" stroke-width="2"/>
<path d="M61.0317 59.3649L64.206 65.9199L57.2057 70.4029" stroke="#CDAB5E" stroke-width="2"/>
<path d="M49.3817 60.4784L52.5879 65.3688L45.5876 69.8518" stroke="#CDAB5E" stroke-width="2"/>
<ellipse cx="53.8256" cy="30.9931" rx="2.93698" ry="3.04576" transform="rotate(10.2433 53.8256 30.9931)" fill="#CDAB5E"/>
<path d="M53.4619 19.7339C47.4146 14.6617 54.0214 4.83105 57.4764 5.89756C60.2405 6.75077 58.7812 9.89166 57.7061 11.3554C60.4647 10.159 66.2569 8.32433 67.3567 10.557C68.4566 12.7897 64.6803 15.7845 62.6547 17.0029C65.8345 15.5141 72.314 13.4646 72.7928 17.1768C73.2716 20.889 65.2019 24.3166 61.1072 25.5663" stroke="#CDAB5E" stroke-width="2"/>
<path d="M27 65L19 71.7642L27 78" stroke="#CDAB5E" stroke-width="2"/>
</svg>
