<svg width="168" height="36" viewBox="0 0 168 36" fill="none" xmlns="http://www.w3.org/2000/svg">
<rect width="50" height="35.4839" fill="#244974"/>
<path d="M7.66138 29.0362L35.0557 28.8866M41.6589 28.8506L44.0135 25.9332L37.4934 26.003L35.0557 28.8866M41.6589 28.8506L35.0557 28.8866M41.6589 28.8506L44.0135 31.7506L37.4934 31.7506L35.0557 28.8866M22.5202 27.19L22.5202 30.5235" stroke="#CDAB5E"/>
<path d="M22.382 6.3057L32.7252 23.8655L13.2103 24.5048L22.382 6.3057Z" stroke="#CDAB5E"/>
<path d="M17.142 15.7446L13.5544 13.3706L18.4278 13.2397L17.142 15.7446Z" stroke="#CDAB5E"/>
<path d="M24.6096 23.9378L25.8895 26.581L23.0668 28.3886" stroke="#CDAB5E"/>
<path d="M19.912 24.3865L21.2048 26.3584L18.3821 28.1661" stroke="#CDAB5E"/>
<ellipse cx="21.7038" cy="12.4963" rx="1.18427" ry="1.22813" transform="rotate(10.2433 21.7038 12.4963)" fill="#CDAB5E"/>
<path d="M21.5572 7.9577C19.1188 5.91245 21.7828 1.94848 23.176 2.37852C24.2905 2.72256 23.7021 3.98904 23.2686 4.57928C24.3809 4.09685 26.7165 3.35706 27.16 4.25733C27.6035 5.1576 26.0808 6.3652 25.264 6.85647C26.5462 6.25616 29.1589 5.42975 29.3519 6.92661C29.545 8.42347 26.2911 9.80554 24.64 10.3095" stroke="#CDAB5E"/>
<path d="M10.8872 26.2109L7.66135 28.9384L10.8872 31.4529" stroke="#CDAB5E"/>
<path d="M68.74 25.42C68.3667 25.42 68.0133 25.3867 67.68 25.32C67.3467 25.2667 67.04 25.16 66.76 25C66.48 24.84 66.22 24.62 65.98 24.34C65.66 23.94 65.3533 23.56 65.06 23.2C64.7667 22.8267 64.4533 22.4 64.12 21.92C63.8 21.44 63.4067 20.8267 62.94 20.08C62.74 19.7467 62.4533 19.4867 62.08 19.3C61.7867 19.1533 61.4933 19.0533 61.2 19C60.92 18.9333 60.6867 18.8933 60.5 18.88C60.3933 18.8667 60.3133 18.9 60.26 18.98C60.22 19.06 60.2 19.16 60.2 19.28V22.8C60.2 23.2267 60.3 23.6 60.5 23.92C60.7 24.2267 61.0467 24.4267 61.54 24.52C61.7667 24.56 61.9333 24.6067 62.04 24.66C62.1467 24.7133 62.2 24.7867 62.2 24.88C62.2 24.96 62.1467 25.0133 62.04 25.04C61.9333 25.08 61.7933 25.1 61.62 25.1C61.26 25.1 60.98 25.0867 60.78 25.06C60.5933 25.0333 60.42 25.0133 60.26 25C60.1133 24.9733 59.9133 24.96 59.66 24.96C59.3267 24.96 59.0267 24.9733 58.76 25C58.5067 25.0133 58.2467 25.0333 57.98 25.06C57.7267 25.0867 57.42 25.1 57.06 25.1C56.8867 25.1 56.7467 25.08 56.64 25.04C56.5333 25.0133 56.48 24.96 56.48 24.88C56.48 24.72 56.7 24.6 57.14 24.52C57.6467 24.4267 58.0133 24.2733 58.24 24.06C58.48 23.8467 58.6 23.4933 58.6 23V14.48C58.6 13.9733 58.5733 13.5933 58.52 13.34C58.48 13.0733 58.3733 12.8867 58.2 12.78C58.04 12.6733 57.7667 12.6 57.38 12.56C57.1533 12.5333 56.9867 12.4867 56.88 12.42C56.7733 12.34 56.72 12.2533 56.72 12.16C56.72 12.08 56.7733 12.0267 56.88 12C56.9867 11.96 57.1267 11.94 57.3 11.94C57.66 11.94 57.9267 11.94 58.1 11.94C58.2867 11.94 58.46 11.9467 58.62 11.96C58.78 11.96 58.9933 11.96 59.26 11.96C59.5133 11.96 59.74 11.9533 59.94 11.94C60.14 11.9133 60.36 11.8933 60.6 11.88C60.8533 11.8667 61.1733 11.86 61.56 11.86C63.0267 11.86 64.14 12.1333 64.9 12.68C65.6733 13.2267 66.06 14.0467 66.06 15.14C66.06 15.74 65.94 16.26 65.7 16.7C65.46 17.1267 65.16 17.4867 64.8 17.78C64.44 18.0733 64.0733 18.3133 63.7 18.5C63.6467 18.5133 63.62 18.5467 63.62 18.6C63.6333 18.64 63.66 18.6933 63.7 18.76C64.1133 19.3867 64.5067 19.98 64.88 20.54C65.2667 21.1 65.6867 21.6467 66.14 22.18C66.5933 22.7133 67.1333 23.2667 67.76 23.84C68.1067 24.1467 68.46 24.3333 68.82 24.4C69.18 24.4667 69.5933 24.5 70.06 24.5C70.26 24.5 70.36 24.5733 70.36 24.72C70.36 24.92 70.26 25.0667 70.06 25.16C69.86 25.2667 69.6333 25.3333 69.38 25.36C69.1267 25.4 68.9133 25.42 68.74 25.42ZM61.26 18.42C61.8733 18.42 62.4 18.28 62.84 18C63.2933 17.72 63.64 17.3533 63.88 16.9C64.1333 16.4467 64.26 15.9667 64.26 15.46C64.26 14.9133 64.1867 14.4133 64.04 13.96C63.9067 13.5067 63.6267 13.1467 63.2 12.88C62.7867 12.6 62.16 12.46 61.32 12.46C60.8933 12.46 60.6133 12.6 60.48 12.88C60.3467 13.1467 60.2667 13.6267 60.24 14.32C60.2267 14.6533 60.2133 15.1067 60.2 15.68C60.2 16.24 60.2 16.92 60.2 17.72C60.2 18.0533 60.2933 18.2533 60.48 18.32C60.6667 18.3867 60.9267 18.42 61.26 18.42ZM74.9378 25.28C74.1911 25.28 73.5178 25.1067 72.9178 24.76C72.3178 24.4133 71.8378 23.94 71.4778 23.34C71.1311 22.7267 70.9578 22.0333 70.9578 21.26C70.9578 20.7 71.0645 20.1533 71.2778 19.62C71.5045 19.0867 71.8178 18.6 72.2178 18.16C72.6178 17.72 73.0845 17.3733 73.6178 17.12C74.1511 16.8533 74.7245 16.72 75.3378 16.72C76.1111 16.72 76.8045 16.9067 77.4178 17.28C78.0445 17.6533 78.5378 18.1467 78.8978 18.76C79.2711 19.36 79.4578 20.02 79.4578 20.74C79.4578 21.5133 79.2845 22.2467 78.9378 22.94C78.6045 23.6333 78.1045 24.2 77.4378 24.64C76.7711 25.0667 75.9378 25.28 74.9378 25.28ZM75.3578 24.68C75.8111 24.68 76.2178 24.5933 76.5778 24.42C76.9378 24.2467 77.2178 23.9667 77.4178 23.58C77.5778 23.2733 77.6845 22.9 77.7378 22.46C77.7911 22.02 77.8178 21.6067 77.8178 21.22C77.8178 20.58 77.6978 19.9667 77.4578 19.38C77.2311 18.78 76.9045 18.2933 76.4778 17.92C76.0645 17.5333 75.5711 17.34 74.9978 17.34C74.6378 17.34 74.3111 17.4 74.0178 17.52C73.7378 17.6267 73.4778 17.8333 73.2378 18.14C72.9711 18.4733 72.7978 18.88 72.7178 19.36C72.6378 19.84 72.5978 20.32 72.5978 20.8C72.5978 21.4533 72.7178 22.08 72.9578 22.68C73.1978 23.2667 73.5245 23.7467 73.9378 24.12C74.3511 24.4933 74.8245 24.68 75.3578 24.68ZM84.8402 25.28C84.0935 25.28 83.4202 25.1067 82.8202 24.76C82.2202 24.4133 81.7402 23.94 81.3802 23.34C81.0335 22.7267 80.8602 22.0333 80.8602 21.26C80.8602 20.7 80.9668 20.1533 81.1802 19.62C81.4068 19.0867 81.7202 18.6 82.1202 18.16C82.5202 17.72 82.9868 17.3733 83.5202 17.12C84.0535 16.8533 84.6268 16.72 85.2402 16.72C86.0135 16.72 86.7068 16.9067 87.3202 17.28C87.9468 17.6533 88.4402 18.1467 88.8002 18.76C89.1735 19.36 89.3602 20.02 89.3602 20.74C89.3602 21.5133 89.1868 22.2467 88.8402 22.94C88.5068 23.6333 88.0068 24.2 87.3402 24.64C86.6735 25.0667 85.8402 25.28 84.8402 25.28ZM85.2602 24.68C85.7135 24.68 86.1202 24.5933 86.4802 24.42C86.8402 24.2467 87.1202 23.9667 87.3202 23.58C87.4802 23.2733 87.5868 22.9 87.6402 22.46C87.6935 22.02 87.7202 21.6067 87.7202 21.22C87.7202 20.58 87.6002 19.9667 87.3602 19.38C87.1335 18.78 86.8068 18.2933 86.3802 17.92C85.9668 17.5333 85.4735 17.34 84.9002 17.34C84.5402 17.34 84.2135 17.4 83.9202 17.52C83.6402 17.6267 83.3802 17.8333 83.1402 18.14C82.8735 18.4733 82.7002 18.88 82.6202 19.36C82.5402 19.84 82.5002 20.32 82.5002 20.8C82.5002 21.4533 82.6202 22.08 82.8602 22.68C83.1002 23.2667 83.4268 23.7467 83.8402 24.12C84.2535 24.4933 84.7268 24.68 85.2602 24.68ZM92.9425 25.28C92.5292 25.28 92.1425 25.2133 91.7825 25.08C91.4225 24.96 91.1158 24.7867 90.8625 24.56C90.7958 24.4133 90.7425 24.1667 90.7025 23.82C90.6758 23.4733 90.6558 23.1867 90.6425 22.96C90.6425 22.84 90.7292 22.78 90.9025 22.78C90.9558 22.78 91.0025 22.7933 91.0425 22.82C91.0958 22.8333 91.1292 22.8667 91.1425 22.92C91.3158 23.5733 91.5892 24.04 91.9625 24.32C92.3492 24.6 92.7358 24.74 93.1225 24.74C93.5092 24.74 93.8358 24.6133 94.1025 24.36C94.3825 24.0933 94.5225 23.7667 94.5225 23.38C94.5225 23.02 94.4025 22.7133 94.1625 22.46C93.9225 22.1933 93.5025 21.8733 92.9025 21.5C92.4492 21.22 92.0825 20.9533 91.8025 20.7C91.5225 20.4467 91.3158 20.1867 91.1825 19.92C91.0625 19.6533 91.0025 19.3533 91.0025 19.02C91.0025 18.5933 91.1025 18.2067 91.3025 17.86C91.5025 17.5133 91.8025 17.24 92.2025 17.04C92.6025 16.8267 93.1025 16.72 93.7025 16.72C94.1025 16.72 94.4358 16.76 94.7025 16.84C94.9692 16.92 95.1692 17.0067 95.3025 17.1C95.4092 17.2467 95.4958 17.48 95.5625 17.8C95.6425 18.1067 95.6825 18.4 95.6825 18.68C95.6825 18.7733 95.6158 18.82 95.4825 18.82C95.4025 18.82 95.3225 18.8067 95.2425 18.78C95.1758 18.74 95.1292 18.6933 95.1025 18.64C94.9292 18.2 94.7092 17.8667 94.4425 17.64C94.1892 17.4 93.8692 17.28 93.4825 17.28C93.1492 17.28 92.8492 17.38 92.5825 17.58C92.3292 17.78 92.2025 18.0733 92.2025 18.46C92.2025 18.7667 92.2958 19.04 92.4825 19.28C92.6825 19.52 93.0492 19.7933 93.5825 20.1C94.3558 20.54 94.9292 20.9533 95.3025 21.34C95.6892 21.7133 95.8825 22.2133 95.8825 22.84C95.8825 23.56 95.6092 24.1467 95.0625 24.6C94.5158 25.0533 93.8092 25.28 92.9425 25.28ZM100.307 25.28C99.654 25.28 99.1407 25.08 98.7673 24.68C98.4073 24.28 98.2273 23.6867 98.2273 22.9V18.26C98.2273 18.1533 98.1873 18.08 98.1073 18.04C98.0273 17.9867 97.854 17.96 97.5873 17.96H97.4673C97.4007 17.96 97.3407 17.92 97.2873 17.84C97.2473 17.7467 97.2273 17.6533 97.2273 17.56C97.2273 17.5333 97.2473 17.4933 97.2873 17.44C97.3273 17.3867 97.354 17.3533 97.3673 17.34C97.634 17.1533 97.874 16.9667 98.0873 16.78C98.314 16.5933 98.514 16.4133 98.6873 16.24C98.874 16.0533 99.0273 15.8867 99.1473 15.74C99.214 15.6733 99.2673 15.62 99.3073 15.58C99.3607 15.5267 99.4207 15.5 99.4873 15.5C99.554 15.5 99.614 15.5133 99.6673 15.54C99.734 15.5667 99.7607 15.6267 99.7473 15.72L99.6473 16.62C99.634 16.7667 99.6673 16.8667 99.7473 16.92C99.8273 16.9733 99.954 17 100.127 17H102.407C102.461 17 102.507 17.0467 102.547 17.14C102.587 17.22 102.607 17.32 102.607 17.44C102.607 17.56 102.587 17.68 102.547 17.8C102.507 17.9067 102.461 17.96 102.407 17.96H100.427C100.094 17.96 99.874 17.9867 99.7673 18.04C99.674 18.0933 99.6273 18.2533 99.6273 18.52V22.46C99.6273 22.9933 99.7407 23.4133 99.9673 23.72C100.194 24.0267 100.521 24.18 100.947 24.18C101.334 24.18 101.634 24.1533 101.847 24.1C102.061 24.0333 102.254 23.94 102.427 23.82C102.454 23.7933 102.481 23.78 102.507 23.78C102.561 23.78 102.594 23.8133 102.607 23.88C102.634 23.9333 102.647 23.9933 102.647 24.06C102.647 24.1267 102.534 24.26 102.307 24.46C102.094 24.66 101.807 24.8467 101.447 25.02C101.101 25.1933 100.721 25.28 100.307 25.28ZM107.076 25.3C106.343 25.3 105.703 25.12 105.156 24.76C104.61 24.4 104.183 23.8933 103.876 23.24C103.57 22.5733 103.416 21.8067 103.416 20.94C103.416 20.1667 103.59 19.4667 103.936 18.84C104.296 18.2 104.77 17.6867 105.356 17.3C105.943 16.9133 106.583 16.72 107.276 16.72C107.81 16.72 108.283 16.8267 108.696 17.04C109.11 17.2533 109.43 17.5533 109.656 17.94C109.896 18.3133 110.016 18.7467 110.016 19.24C110.016 19.6533 109.816 19.86 109.416 19.86H105.196C105.01 19.86 104.876 19.9133 104.796 20.02C104.73 20.1133 104.696 20.3067 104.696 20.6C104.696 21.24 104.836 21.8267 105.116 22.36C105.396 22.88 105.77 23.3 106.236 23.62C106.703 23.9267 107.216 24.08 107.776 24.08C108.176 24.08 108.536 24.0067 108.856 23.86C109.19 23.7 109.483 23.4733 109.736 23.18C109.79 23.1133 109.83 23.0733 109.856 23.06C109.883 23.0333 109.916 23.02 109.956 23.02C110.063 23.02 110.116 23.0867 110.116 23.22C110.116 23.4733 109.996 23.7533 109.756 24.06C109.556 24.3133 109.316 24.5333 109.036 24.72C108.756 24.9067 108.45 25.0467 108.116 25.14C107.783 25.2467 107.436 25.3 107.076 25.3ZM105.236 19.24H107.056C107.376 19.24 107.65 19.2333 107.876 19.22C108.103 19.2067 108.323 19.18 108.536 19.14C108.603 19.1267 108.643 19.0867 108.656 19.02C108.683 18.94 108.696 18.8333 108.696 18.7C108.696 18.3133 108.523 17.9867 108.176 17.72C107.843 17.44 107.443 17.3 106.976 17.3C106.67 17.3 106.363 17.3933 106.056 17.58C105.75 17.7533 105.496 17.9733 105.296 18.24C105.096 18.5067 104.996 18.7733 104.996 19.04C104.996 19.1733 105.076 19.24 105.236 19.24ZM111.589 25.06C111.456 25.06 111.356 25.04 111.289 25C111.223 24.9733 111.189 24.92 111.189 24.84C111.189 24.7333 111.229 24.6667 111.309 24.64C111.389 24.6 111.503 24.56 111.649 24.52C111.903 24.4533 112.089 24.36 112.209 24.24C112.343 24.1067 112.409 23.9467 112.409 23.76V19.46C112.409 19.1 112.356 18.7867 112.249 18.52C112.143 18.2533 111.923 18.0867 111.589 18.02C111.536 18.0067 111.489 17.9733 111.449 17.92C111.409 17.8667 111.389 17.8133 111.389 17.76C111.389 17.6267 111.449 17.5467 111.569 17.52C111.916 17.4133 112.276 17.26 112.649 17.06C113.036 16.8467 113.336 16.6733 113.549 16.54C113.629 16.4867 113.689 16.4533 113.729 16.44C113.783 16.4133 113.823 16.4 113.849 16.4C113.916 16.4 113.949 16.4467 113.949 16.54C113.949 16.58 113.943 16.68 113.929 16.84C113.929 17 113.923 17.1867 113.909 17.4C113.909 17.6133 113.903 17.8267 113.889 18.04C113.889 18.0667 113.903 18.08 113.929 18.08C114.143 17.8133 114.376 17.58 114.629 17.38C114.896 17.18 115.163 17.02 115.429 16.9C115.709 16.78 115.976 16.72 116.229 16.72C116.509 16.72 116.736 16.78 116.909 16.9C117.096 17.02 117.189 17.1733 117.189 17.36C117.189 17.4933 117.149 17.64 117.069 17.8C117.003 17.96 116.909 18.1 116.789 18.22C116.669 18.34 116.543 18.4 116.409 18.4C116.329 18.4 116.243 18.3867 116.149 18.36C116.056 18.32 115.956 18.2733 115.849 18.22C115.743 18.18 115.636 18.14 115.529 18.1C115.423 18.06 115.316 18.04 115.209 18.04C114.889 18.04 114.576 18.1533 114.269 18.38C113.976 18.6067 113.829 19.0533 113.829 19.72V23.76C113.829 23.9333 113.923 24.08 114.109 24.2C114.296 24.3067 114.556 24.4133 114.889 24.52C115.036 24.56 115.149 24.6 115.229 24.64C115.309 24.68 115.349 24.7467 115.349 24.84C115.349 24.9867 115.216 25.06 114.949 25.06C114.549 25.06 114.243 25.04 114.029 25C113.829 24.9733 113.556 24.96 113.209 24.96C112.983 24.96 112.796 24.9667 112.649 24.98C112.516 24.9933 112.369 25.0067 112.209 25.02C112.063 25.0467 111.856 25.06 111.589 25.06ZM125.573 25.1C125.4 25.1 125.26 25.08 125.153 25.04C125.046 25.0133 124.993 24.96 124.993 24.88C124.993 24.7867 125.046 24.7133 125.153 24.66C125.26 24.6067 125.426 24.56 125.653 24.52C126.16 24.4267 126.546 24.2667 126.813 24.04C127.08 23.8 127.213 23.44 127.213 22.96V15.2C127.213 14.5867 127.2 14.12 127.173 13.8C127.146 13.4667 127.1 13.2333 127.033 13.1C126.98 12.9667 126.9 12.8933 126.793 12.88C126.606 12.84 126.406 12.82 126.193 12.82C125.993 12.8067 125.72 12.8 125.373 12.8H124.433C124.113 12.8 123.793 12.8667 123.473 13C123.166 13.12 122.94 13.3133 122.793 13.58C122.753 13.6467 122.686 13.7467 122.593 13.88C122.5 14 122.4 14.1067 122.293 14.2C122.186 14.2933 122.08 14.34 121.973 14.34C121.92 14.34 121.88 14.3133 121.853 14.26C121.84 14.2067 121.833 14.1467 121.833 14.08C121.833 13.9467 121.866 13.8133 121.933 13.68C122.12 13.2933 122.253 12.9533 122.333 12.66C122.426 12.3533 122.5 11.9933 122.553 11.58C122.58 11.3533 122.626 11.22 122.693 11.18C122.773 11.14 122.84 11.12 122.893 11.12C122.946 11.12 123.026 11.2 123.133 11.36C123.253 11.52 123.34 11.6533 123.393 11.76C123.473 11.8933 123.653 11.9933 123.933 12.06C124.226 12.1267 124.513 12.16 124.793 12.16H131.833C132.3 12.16 132.68 12.1333 132.973 12.08C133.266 12.0267 133.52 11.9533 133.733 11.86C133.893 11.78 134.02 11.6933 134.113 11.6C134.22 11.5067 134.353 11.46 134.513 11.46C134.553 11.46 134.586 11.5133 134.613 11.62C134.64 11.7133 134.653 11.8133 134.653 11.92C134.653 11.9867 134.64 12.08 134.613 12.2C134.6 12.32 134.586 12.4133 134.573 12.48C134.533 12.72 134.493 12.8933 134.453 13C134.426 13.1067 134.406 13.2 134.393 13.28C134.38 13.36 134.373 13.4867 134.373 13.66V13.9C134.373 14.02 134.346 14.16 134.293 14.32C134.24 14.4667 134.16 14.54 134.053 14.54C133.96 14.54 133.886 14.4667 133.833 14.32C133.78 14.1733 133.726 13.9733 133.673 13.72C133.62 13.44 133.46 13.22 133.193 13.06C132.926 12.8867 132.473 12.8 131.833 12.8H129.813C129.52 12.8 129.3 12.84 129.153 12.92C129.006 13 128.913 13.2 128.873 13.52C128.833 13.84 128.813 14.3667 128.813 15.1V22.96C128.813 23.44 128.953 23.8 129.233 24.04C129.513 24.2667 129.9 24.4267 130.393 24.52C130.62 24.56 130.786 24.6067 130.893 24.66C131 24.7133 131.053 24.7867 131.053 24.88C131.053 24.96 131 25.0133 130.893 25.04C130.786 25.08 130.646 25.1 130.473 25.1C130.113 25.1 129.813 25.0867 129.573 25.06C129.346 25.0467 129.126 25.0333 128.913 25.02C128.7 25.0067 128.44 25 128.133 25C127.8 25 127.506 25.0067 127.253 25.02C127.013 25.0333 126.76 25.0467 126.493 25.06C126.24 25.0867 125.933 25.1 125.573 25.1ZM133.679 25.06C133.546 25.06 133.446 25.04 133.379 25C133.313 24.9733 133.279 24.92 133.279 24.84C133.279 24.7333 133.319 24.6667 133.399 24.64C133.479 24.6 133.593 24.56 133.739 24.52C133.993 24.4533 134.179 24.36 134.299 24.24C134.433 24.1067 134.499 23.9467 134.499 23.76V19.46C134.499 19.1 134.446 18.7867 134.339 18.52C134.233 18.2533 134.013 18.0867 133.679 18.02C133.626 18.0067 133.579 17.9733 133.539 17.92C133.499 17.8667 133.479 17.8133 133.479 17.76C133.479 17.6267 133.539 17.5467 133.659 17.52C134.006 17.4133 134.366 17.26 134.739 17.06C135.126 16.8467 135.426 16.6733 135.639 16.54C135.719 16.4867 135.779 16.4533 135.819 16.44C135.873 16.4133 135.913 16.4 135.939 16.4C136.006 16.4 136.039 16.4467 136.039 16.54C136.039 16.58 136.033 16.68 136.019 16.84C136.019 17 136.013 17.1867 135.999 17.4C135.999 17.6133 135.993 17.8267 135.979 18.04C135.979 18.0667 135.993 18.08 136.019 18.08C136.233 17.8133 136.466 17.58 136.719 17.38C136.986 17.18 137.253 17.02 137.519 16.9C137.799 16.78 138.066 16.72 138.319 16.72C138.599 16.72 138.826 16.78 138.999 16.9C139.186 17.02 139.279 17.1733 139.279 17.36C139.279 17.4933 139.239 17.64 139.159 17.8C139.093 17.96 138.999 18.1 138.879 18.22C138.759 18.34 138.633 18.4 138.499 18.4C138.419 18.4 138.333 18.3867 138.239 18.36C138.146 18.32 138.046 18.2733 137.939 18.22C137.833 18.18 137.726 18.14 137.619 18.1C137.513 18.06 137.406 18.04 137.299 18.04C136.979 18.04 136.666 18.1533 136.359 18.38C136.066 18.6067 135.919 19.0533 135.919 19.72V23.76C135.919 23.9333 136.013 24.08 136.199 24.2C136.386 24.3067 136.646 24.4133 136.979 24.52C137.126 24.56 137.239 24.6 137.319 24.64C137.399 24.68 137.439 24.7467 137.439 24.84C137.439 24.9867 137.306 25.06 137.039 25.06C136.639 25.06 136.333 25.04 136.119 25C135.919 24.9733 135.646 24.96 135.299 24.96C135.073 24.96 134.886 24.9667 134.739 24.98C134.606 24.9933 134.459 25.0067 134.299 25.02C134.153 25.0467 133.946 25.06 133.679 25.06ZM141.719 25.28C141.479 25.28 141.232 25.1867 140.979 25C140.739 24.8133 140.532 24.5867 140.359 24.32C140.199 24.0533 140.119 23.8 140.119 23.56C140.119 23.1333 140.232 22.8 140.459 22.56C140.686 22.32 141.046 22.1 141.539 21.9L143.579 21.06C143.846 20.9533 143.999 20.86 144.039 20.78C144.092 20.7 144.126 20.5267 144.139 20.26L144.179 18.98C144.192 18.6333 144.092 18.3333 143.879 18.08C143.679 17.8267 143.386 17.7 142.999 17.7C142.799 17.7 142.599 17.7333 142.399 17.8C142.199 17.8667 142.032 17.9533 141.899 18.06C141.819 18.1133 141.766 18.1933 141.739 18.3C141.712 18.4067 141.699 18.52 141.699 18.64C141.699 18.6933 141.699 18.7533 141.699 18.82C141.712 18.8867 141.719 18.9467 141.719 19C141.719 19.0667 141.632 19.16 141.459 19.28C141.299 19.3867 141.112 19.4867 140.899 19.58C140.699 19.66 140.532 19.7 140.399 19.7C140.332 19.7 140.279 19.6867 140.239 19.66C140.199 19.62 140.179 19.5733 140.179 19.52C140.179 19.3067 140.246 19.08 140.379 18.84C140.526 18.5867 140.726 18.3533 140.979 18.14C141.286 17.86 141.619 17.6133 141.979 17.4C142.339 17.1867 142.692 17.02 143.039 16.9C143.386 16.78 143.692 16.72 143.959 16.72C144.439 16.72 144.832 16.8933 145.139 17.24C145.459 17.5733 145.612 17.9933 145.599 18.5L145.499 23.3C145.486 23.58 145.546 23.8067 145.679 23.98C145.826 24.1533 146.006 24.24 146.219 24.24C146.552 24.24 146.799 24.1667 146.959 24.02C147.026 23.9533 147.079 23.92 147.119 23.92C147.186 23.92 147.239 23.94 147.279 23.98C147.319 24.02 147.339 24.0733 147.339 24.14C147.339 24.2867 147.266 24.4333 147.119 24.58C146.906 24.7933 146.672 24.96 146.419 25.08C146.179 25.2133 145.952 25.28 145.739 25.28C145.126 25.28 144.639 24.9333 144.279 24.24H144.219C143.779 24.6 143.359 24.86 142.959 25.02C142.559 25.1933 142.146 25.28 141.719 25.28ZM142.659 24.32C142.926 24.32 143.152 24.28 143.339 24.2C143.526 24.1067 143.692 23.9867 143.839 23.84C143.906 23.7733 143.959 23.6867 143.999 23.58C144.052 23.46 144.086 23.2733 144.099 23.02L144.139 22.04C144.152 21.8933 144.146 21.7867 144.119 21.72C144.092 21.6533 144.039 21.62 143.959 21.62C143.932 21.62 143.886 21.6267 143.819 21.64C143.752 21.6533 143.666 21.68 143.559 21.72C142.852 21.9733 142.359 22.24 142.079 22.52C141.812 22.7867 141.679 23.0333 141.679 23.26C141.679 23.6067 141.779 23.8733 141.979 24.06C142.192 24.2333 142.419 24.32 142.659 24.32ZM151.257 25.42C151.203 25.42 151.137 25.3133 151.057 25.1C150.977 24.9 150.923 24.7533 150.897 24.66C150.803 24.4333 150.717 24.2 150.637 23.96C150.557 23.7067 150.477 23.4733 150.397 23.26C150.103 22.4333 149.783 21.6267 149.437 20.84C149.103 20.04 148.777 19.2333 148.457 18.42C148.363 18.18 148.217 17.9667 148.017 17.78C147.83 17.58 147.637 17.4533 147.437 17.4C147.33 17.36 147.243 17.32 147.177 17.28C147.11 17.24 147.077 17.1733 147.077 17.08C147.077 17 147.123 16.9533 147.217 16.94C147.323 16.9133 147.41 16.9 147.477 16.9C147.743 16.9 147.937 16.9067 148.057 16.92C148.177 16.9333 148.297 16.9533 148.417 16.98C148.537 16.9933 148.71 17 148.937 17C149.177 17 149.357 16.9933 149.477 16.98C149.597 16.9533 149.723 16.9333 149.857 16.92C149.99 16.9067 150.183 16.9 150.437 16.9C150.503 16.9 150.583 16.9133 150.677 16.94C150.783 16.9533 150.837 17 150.837 17.08C150.837 17.1733 150.79 17.2467 150.697 17.3C150.603 17.3533 150.497 17.4 150.377 17.44C150.243 17.4933 150.143 17.6 150.077 17.76C150.01 17.9067 149.977 18.0733 149.977 18.26C149.977 18.3533 149.983 18.4467 149.997 18.54C150.01 18.6333 150.03 18.72 150.057 18.8L151.637 23C151.65 23.0133 151.657 23.02 151.657 23.02C151.67 23.02 151.683 23.0133 151.697 23L153.217 19.1C153.27 18.9667 153.31 18.8267 153.337 18.68C153.363 18.52 153.377 18.3867 153.377 18.28C153.377 18.0133 153.337 17.8267 153.257 17.72C153.177 17.6 153.043 17.5067 152.857 17.44C152.683 17.3733 152.563 17.32 152.497 17.28C152.43 17.24 152.397 17.1733 152.397 17.08C152.397 17 152.437 16.9533 152.517 16.94C152.61 16.9133 152.703 16.9 152.797 16.9C152.943 16.9 153.137 16.92 153.377 16.96C153.617 16.9867 153.91 17 154.257 17C154.603 17 154.837 16.9867 154.957 16.96C155.09 16.92 155.25 16.9 155.437 16.9C155.543 16.9 155.637 16.9133 155.717 16.94C155.797 16.9533 155.837 17 155.837 17.08C155.837 17.2267 155.683 17.3467 155.377 17.44C155.177 17.4933 154.957 17.6467 154.717 17.9C154.477 18.1533 154.283 18.4467 154.137 18.78L152.577 22.54C152.55 22.5933 152.497 22.7267 152.417 22.94C152.337 23.14 152.25 23.3667 152.157 23.62C152.063 23.86 151.983 24.0733 151.917 24.26C151.85 24.4333 151.817 24.52 151.817 24.52C151.817 24.52 151.79 24.5867 151.737 24.72C151.683 24.84 151.623 24.9667 151.557 25.1C151.49 25.2467 151.43 25.3533 151.377 25.42H151.257ZM159.498 25.3C158.765 25.3 158.125 25.12 157.578 24.76C157.032 24.4 156.605 23.8933 156.298 23.24C155.992 22.5733 155.838 21.8067 155.838 20.94C155.838 20.1667 156.012 19.4667 156.358 18.84C156.718 18.2 157.192 17.6867 157.778 17.3C158.365 16.9133 159.005 16.72 159.698 16.72C160.232 16.72 160.705 16.8267 161.118 17.04C161.532 17.2533 161.852 17.5533 162.078 17.94C162.318 18.3133 162.438 18.7467 162.438 19.24C162.438 19.6533 162.238 19.86 161.838 19.86H157.618C157.432 19.86 157.298 19.9133 157.218 20.02C157.152 20.1133 157.118 20.3067 157.118 20.6C157.118 21.24 157.258 21.8267 157.538 22.36C157.818 22.88 158.192 23.3 158.658 23.62C159.125 23.9267 159.638 24.08 160.198 24.08C160.598 24.08 160.958 24.0067 161.278 23.86C161.612 23.7 161.905 23.4733 162.158 23.18C162.212 23.1133 162.252 23.0733 162.278 23.06C162.305 23.0333 162.338 23.02 162.378 23.02C162.485 23.02 162.538 23.0867 162.538 23.22C162.538 23.4733 162.418 23.7533 162.178 24.06C161.978 24.3133 161.738 24.5333 161.458 24.72C161.178 24.9067 160.872 25.0467 160.538 25.14C160.205 25.2467 159.858 25.3 159.498 25.3ZM157.658 19.24H159.478C159.798 19.24 160.072 19.2333 160.298 19.22C160.525 19.2067 160.745 19.18 160.958 19.14C161.025 19.1267 161.065 19.0867 161.078 19.02C161.105 18.94 161.118 18.8333 161.118 18.7C161.118 18.3133 160.945 17.9867 160.598 17.72C160.265 17.44 159.865 17.3 159.398 17.3C159.092 17.3 158.785 17.3933 158.478 17.58C158.172 17.7533 157.918 17.9733 157.718 18.24C157.518 18.5067 157.418 18.7733 157.418 19.04C157.418 19.1733 157.498 19.24 157.658 19.24ZM163.811 25.06C163.745 25.06 163.658 25.0467 163.551 25.02C163.458 25.0067 163.411 24.96 163.411 24.88C163.411 24.7733 163.458 24.7 163.551 24.66C163.658 24.6067 163.765 24.56 163.871 24.52C164.071 24.4533 164.265 24.38 164.451 24.3C164.638 24.2067 164.731 24.0267 164.731 23.76V13.68C164.731 13.2933 164.658 12.9733 164.511 12.72C164.378 12.4533 164.145 12.2867 163.811 12.22C163.705 12.1933 163.651 12.1067 163.651 11.96C163.651 11.8267 163.698 11.7467 163.791 11.72C164.138 11.64 164.438 11.56 164.691 11.48C164.945 11.3867 165.178 11.2933 165.391 11.2C165.618 11.1067 165.838 11.02 166.051 10.94C166.105 10.9133 166.145 10.9 166.171 10.9C166.198 10.9 166.218 10.92 166.231 10.96C166.258 10.9867 166.271 11.0133 166.271 11.04C166.271 11.16 166.245 11.42 166.191 11.82C166.151 12.2067 166.131 12.8533 166.131 13.76V23.76C166.131 24.0267 166.225 24.2067 166.411 24.3C166.598 24.38 166.791 24.4533 166.991 24.52C167.098 24.56 167.198 24.6067 167.291 24.66C167.398 24.7 167.451 24.7733 167.451 24.88C167.451 24.96 167.398 25.0067 167.291 25.02C167.198 25.0467 167.118 25.06 167.051 25.06C166.798 25.06 166.591 25.0467 166.431 25.02C166.285 25.0067 166.138 24.9933 165.991 24.98C165.858 24.9667 165.671 24.96 165.431 24.96C165.205 24.96 165.018 24.9667 164.871 24.98C164.725 24.9933 164.578 25.0067 164.431 25.02C164.285 25.0467 164.078 25.06 163.811 25.06Z" fill="#CDAB5E"/>
</svg>
